<svg width="180" height="700" viewBox="0 0 180 700" xmlns="http://www.w3.org/2000/svg" fill="none">
    <g stroke="#0A2F6B" stroke-width="1.5" opacity="0.4">
        <path d="M 90,40 Q 75,37 90,32 Q 105,37 90,40 Z"/>
        <path d="M 90,65 Q 76,62 90,57 Q 104,62 90,65 Z"/>
        <path d="M 90,90 Q 77,87 90,82 Q 103,87 90,90 Z"/>
        <path d="M 90,115 Q 77,112 90,107 Q 103,112 90,115 Z"/>
        <path d="M 90,140 Q 78,137 90,132 Q 102,137 90,140 Z"/>
        <path d="M 90,165 Q 78,162 90,157 Q 102,162 90,165 Z"/>
        
        <path d="M 88,195 Q 70,190 88,185 Q 106,190 88,195 Z"/>
        <path d="M 86,225 Q 67,220 86,215 Q 105,220 86,225 Z"/>
        <path d="M 84,255 Q 64,250 84,245 Q 104,250 84,255 Z"/>
        <path d="M 82,285 Q 60,280 82,275 Q 104,280 82,285 Z"/>
        <path d="M 81,315 Q 58,310 81,305 Q 104,310 81,315 Z"/>
        <path d="M 82,345 Q 60,340 82,335 Q 104,340 82,345 Z"/>
        <path d="M 84,375 Q 64,370 84,365 Q 104,370 84,375 Z"/>
        <path d="M 86,405 Q 67,400 86,395 Q 105,400 86,405 Z"/>
        
        <path d="M 90,440 Q 70,435 90,427 Q 110,435 90,440 Z"/>
        <path d="M 92,470 Q 71,465 92,457 Q 113,465 92,470 Z"/>
        <path d="M 94,500 Q 72,495 94,487 Q 116,495 94,500 Z"/>
        <path d="M 95,530 Q 73,525 95,517 Q 117,525 95,530 Z"/>
        <path d="M 94,560 Q 71,555 94,547 Q 117,555 94,560 Z"/>
        
        <path d="M 90,580 Q 72,585 90,610 Q 108,585 90,580 Z"/>
        
        <path d="M 90,20 L 90,630" stroke-dasharray="4 6" opacity="0.3"/>
    </g>
</svg>
